<svg width="198" height="37" viewBox="0 0 198 37" fill="none" xmlns="http://www.w3.org/2000/svg">
<path d="M17.0019 0.177314C16.168 0.457512 9.77492 4.28688 9.10318 4.91733C8.73257 5.22088 8.68624 5.78127 8.68624 9.96089C8.68624 12.5527 8.59359 14.771 8.50093 14.8877C8.40828 15.0278 6.71736 16.1019 4.72532 17.2927C2.73327 18.4836 0.857042 19.7211 0.555919 20.048C0 20.6318 0 20.6785 0 25.8855V31.1158L0.694899 31.8163C1.66776 32.797 8.17665 36.7198 9.10318 36.8833C9.75175 37 10.3772 36.6965 13.759 34.6417C15.9132 33.3574 17.8357 32.2833 18.0211 32.2833C18.2064 32.2833 20.1058 33.3574 22.2368 34.6417C24.3446 35.9493 26.3367 37 26.6378 37C27.3327 37 34.467 32.6569 35.2082 31.7696C35.9495 30.8823 36.0653 29.855 35.9726 24.9048C35.9031 21.1688 35.8568 20.6084 35.463 20.1881C35.2314 19.9079 33.4247 18.7404 31.4558 17.5496C29.4637 16.3587 27.7033 15.238 27.5412 15.0512C27.2864 14.8177 27.2169 13.7202 27.2169 10.0076C27.2169 5.78127 27.1706 5.22088 26.8231 4.91733C25.9892 4.19348 19.3414 0.317413 18.577 0.107264C18.0442 -0.0561846 17.5346 -0.0328347 17.0019 0.177314ZM25.6881 7.43911C25.7576 7.64926 25.8271 9.51725 25.8271 11.5954C25.8271 15.238 25.8039 15.4014 25.3175 15.8684C24.3678 16.7323 19.295 19.6978 18.9244 19.6277C18.577 19.5577 18.5306 19.0673 18.4843 15.4715C18.438 13.2299 18.4843 11.2685 18.6001 11.105C18.8318 10.7314 24.8774 7.06551 25.248 7.06551C25.4102 7.06551 25.6186 7.22896 25.6881 7.43911ZM17.025 22.6866C17.303 23.2469 17.3262 29.7149 17.0482 30.462C16.9092 30.8356 15.7742 31.6762 13.6664 32.9371C11.9291 33.9879 10.4003 34.8518 10.3077 34.8518C9.77492 34.8518 9.61277 33.7077 9.61277 30.3453C9.61277 27.2398 9.6591 26.656 10.0297 26.2357C10.5393 25.6053 15.8437 22.2896 16.3765 22.2663C16.6081 22.2429 16.8861 22.4531 17.025 22.6866ZM34.328 26.4459C34.3744 28.6875 34.328 30.6488 34.2122 30.7889C34.0732 31.0224 29.5101 33.9178 28.1897 34.595C27.1242 35.1787 26.9853 34.7117 26.9853 30.4153C26.9853 26.7728 27.0084 26.4926 27.4717 26.0723C28.3982 25.2083 33.3552 22.2663 33.8184 22.313C34.2585 22.3597 34.2817 22.5465 34.328 26.4459Z" fill="white"/>
<path d="M67.7919 30.9279C67.2639 31.2399 66.5319 31.3959 65.5959 31.3959C64.8039 31.3959 64.1679 31.1799 63.6879 30.7479C63.2319 30.2919 63.0039 29.5599 63.0039 28.5519C62.1639 29.5599 61.1799 30.2919 60.0519 30.7479C58.9479 31.1799 57.7479 31.3959 56.4519 31.3959C55.6119 31.3959 54.8079 31.2999 54.0399 31.1079C53.2959 30.9159 52.6479 30.6159 52.0959 30.2079C51.5439 29.7999 51.0999 29.2719 50.7639 28.6239C50.4519 27.9519 50.2959 27.1479 50.2959 26.2119C50.2959 25.1559 50.4759 24.2919 50.8359 23.6199C51.1959 22.9479 51.6639 22.4079 52.2399 21.9999C52.8399 21.5679 53.5119 21.2439 54.2559 21.0279C55.0239 20.8119 55.8039 20.6319 56.5959 20.4879C57.4359 20.3199 58.2279 20.1999 58.9719 20.1279C59.7399 20.0319 60.4119 19.9119 60.9879 19.7679C61.5639 19.5999 62.0199 19.3719 62.3559 19.0839C62.6919 18.7719 62.8599 18.3279 62.8599 17.7519C62.8599 17.0799 62.7279 16.5399 62.4639 16.1319C62.2239 15.7239 61.8999 15.4119 61.4919 15.1959C61.1079 14.9799 60.6639 14.8359 60.1599 14.7639C59.6799 14.6919 59.1999 14.6559 58.7199 14.6559C57.4239 14.6559 56.3439 14.9079 55.4799 15.4119C54.6159 15.8919 54.1479 16.8159 54.0759 18.1839H51.0159C51.0639 17.0319 51.3039 16.0599 51.7359 15.2679C52.1679 14.4759 52.7439 13.8399 53.4639 13.3599C54.1839 12.8559 54.9999 12.4959 55.9119 12.2799C56.8479 12.0639 57.8439 11.9559 58.8999 11.9559C59.7399 11.9559 60.5679 12.0159 61.3839 12.1359C62.2239 12.2559 62.9799 12.5079 63.6519 12.8919C64.3239 13.2519 64.8639 13.7679 65.2719 14.4399C65.6799 15.1119 65.8839 15.9879 65.8839 17.0679V26.6439C65.8839 27.3639 65.9199 27.8919 65.9919 28.2279C66.0879 28.5639 66.3759 28.7319 66.8559 28.7319C67.1199 28.7319 67.4319 28.6719 67.7919 28.5519V30.9279ZM62.8239 21.3879C62.4399 21.6759 61.9359 21.8919 61.3119 22.0359C60.6879 22.1559 60.0279 22.2639 59.3319 22.3599C58.6599 22.4319 57.9759 22.5279 57.2799 22.6479C56.5839 22.7439 55.9599 22.9119 55.4079 23.1519C54.8559 23.3919 54.3999 23.7399 54.0399 24.1959C53.7039 24.6279 53.5359 25.2279 53.5359 25.9959C53.5359 26.4999 53.6319 26.9319 53.8239 27.2919C54.0399 27.6279 54.3039 27.9039 54.6159 28.1199C54.9519 28.3359 55.3359 28.4919 55.7679 28.5879C56.1999 28.6839 56.6559 28.7319 57.1359 28.7319C58.1439 28.7319 59.0079 28.5999 59.7279 28.3359C60.4479 28.0479 61.0359 27.6999 61.4919 27.2919C61.9479 26.8599 62.2839 26.4039 62.4999 25.9239C62.7159 25.4199 62.8239 24.9519 62.8239 24.5199V21.3879Z" fill="white"/>
<path d="M74.1318 12.3879H77.0118V16.3119H77.0838C77.8278 14.7999 78.7398 13.6839 79.8198 12.9639C80.8998 12.2439 82.2678 11.9079 83.9238 11.9559V15.1959C82.6998 15.1959 81.6558 15.3639 80.7918 15.6999C79.9278 16.0359 79.2318 16.5279 78.7038 17.1759C78.1758 17.8239 77.7918 18.6159 77.5518 19.5519C77.3118 20.4639 77.1918 21.5199 77.1918 22.7199V30.9999H74.1318V12.3879Z" fill="white"/>
<path d="M90.0081 5.2959H93.0681V20.5239L101.564 12.3879H105.668L98.2881 19.1559L106.208 30.9999H102.32L95.9481 21.2799L93.0681 23.9439V30.9999H90.0081V5.2959Z" fill="white"/>
<path d="M125.02 19.9119C124.972 19.1919 124.804 18.5079 124.516 17.8599C124.252 17.2119 123.88 16.6599 123.4 16.2039C122.944 15.7239 122.392 15.3519 121.744 15.0879C121.12 14.7999 120.424 14.6559 119.656 14.6559C118.864 14.6559 118.144 14.7999 117.496 15.0879C116.872 15.3519 116.332 15.7239 115.876 16.2039C115.42 16.6839 115.06 17.2479 114.796 17.8959C114.532 18.5199 114.376 19.1919 114.328 19.9119H125.02ZM127.972 25.0959C127.564 27.1839 126.664 28.7559 125.272 29.8119C123.88 30.8679 122.128 31.3959 120.016 31.3959C118.528 31.3959 117.232 31.1559 116.128 30.6759C115.048 30.1959 114.136 29.5239 113.392 28.6599C112.648 27.7959 112.084 26.7639 111.7 25.5639C111.34 24.3639 111.136 23.0559 111.088 21.6399C111.088 20.2239 111.304 18.9279 111.736 17.7519C112.168 16.5759 112.768 15.5559 113.536 14.6919C114.328 13.8279 115.252 13.1559 116.308 12.6759C117.388 12.1959 118.564 11.9559 119.836 11.9559C121.492 11.9559 122.86 12.3039 123.94 12.9999C125.044 13.6719 125.92 14.5359 126.568 15.5919C127.24 16.6479 127.696 17.7999 127.936 19.0479C128.2 20.2959 128.308 21.4839 128.26 22.6119H114.328C114.304 23.4279 114.4 24.2079 114.616 24.9519C114.832 25.6719 115.18 26.3199 115.66 26.8959C116.14 27.4479 116.752 27.8919 117.496 28.2279C118.24 28.5639 119.116 28.7319 120.124 28.7319C121.42 28.7319 122.476 28.4319 123.292 27.8319C124.132 27.2319 124.684 26.3199 124.948 25.0959H127.972Z" fill="white"/>
<path d="M135.032 12.3879H137.912V15.3399H137.984C139.256 13.0839 141.272 11.9559 144.032 11.9559C145.256 11.9559 146.276 12.1239 147.092 12.4599C147.908 12.7959 148.568 13.2639 149.072 13.8639C149.576 14.4639 149.924 15.1839 150.116 16.0239C150.332 16.8399 150.44 17.7519 150.44 18.7599V30.9999H147.38V18.3999C147.38 17.2479 147.044 16.3359 146.372 15.6639C145.7 14.9919 144.776 14.6559 143.6 14.6559C142.664 14.6559 141.848 14.7999 141.152 15.0879C140.48 15.3759 139.916 15.7839 139.46 16.3119C139.004 16.8399 138.656 17.4639 138.416 18.1839C138.2 18.8799 138.092 19.6479 138.092 20.4879V30.9999H135.032V12.3879Z" fill="white"/>
<path d="M160.868 21.7119C160.868 22.8399 161.012 23.8479 161.3 24.7359C161.612 25.5999 162.032 26.3319 162.56 26.9319C163.088 27.5079 163.7 27.9519 164.396 28.2639C165.116 28.5759 165.872 28.7319 166.664 28.7319C167.456 28.7319 168.2 28.5759 168.896 28.2639C169.616 27.9519 170.24 27.5079 170.768 26.9319C171.296 26.3319 171.704 25.5999 171.992 24.7359C172.304 23.8479 172.46 22.8399 172.46 21.7119C172.46 20.5839 172.304 19.5879 171.992 18.7239C171.704 17.8359 171.296 17.0919 170.768 16.4919C170.24 15.8919 169.616 15.4359 168.896 15.1239C168.2 14.8119 167.456 14.6559 166.664 14.6559C165.872 14.6559 165.116 14.8119 164.396 15.1239C163.7 15.4359 163.088 15.8919 162.56 16.4919C162.032 17.0919 161.612 17.8359 161.3 18.7239C161.012 19.5879 160.868 20.5839 160.868 21.7119ZM157.628 21.7119C157.628 20.3439 157.82 19.0719 158.204 17.8959C158.588 16.6959 159.164 15.6639 159.932 14.7999C160.7 13.9119 161.648 13.2159 162.776 12.7119C163.904 12.2079 165.2 11.9559 166.664 11.9559C168.152 11.9559 169.448 12.2079 170.552 12.7119C171.68 13.2159 172.628 13.9119 173.396 14.7999C174.164 15.6639 174.74 16.6959 175.124 17.8959C175.508 19.0719 175.7 20.3439 175.7 21.7119C175.7 23.0799 175.508 24.3519 175.124 25.5279C174.74 26.7039 174.164 27.7359 173.396 28.6239C172.628 29.4879 171.68 30.1719 170.552 30.6759C169.448 31.1559 168.152 31.3959 166.664 31.3959C165.2 31.3959 163.904 31.1559 162.776 30.6759C161.648 30.1719 160.7 29.4879 159.932 28.6239C159.164 27.7359 158.588 26.7039 158.204 25.5279C157.82 24.3519 157.628 23.0799 157.628 21.7119Z" fill="white"/>
<path d="M184.78 25.1319C184.804 25.8039 184.96 26.3799 185.248 26.8599C185.536 27.3159 185.908 27.6879 186.364 27.9759C186.844 28.2399 187.372 28.4319 187.948 28.5519C188.548 28.6719 189.16 28.7319 189.784 28.7319C190.264 28.7319 190.768 28.6959 191.296 28.6239C191.824 28.5519 192.304 28.4199 192.736 28.2279C193.192 28.0359 193.564 27.7599 193.852 27.3999C194.14 27.0159 194.284 26.5359 194.284 25.9599C194.284 25.1679 193.984 24.5679 193.384 24.1599C192.784 23.7519 192.028 23.4279 191.116 23.1879C190.228 22.9239 189.256 22.6959 188.2 22.5039C187.144 22.2879 186.16 21.9999 185.248 21.6399C184.36 21.2559 183.616 20.7279 183.016 20.0559C182.416 19.3839 182.116 18.4479 182.116 17.2479C182.116 16.3119 182.32 15.5079 182.728 14.8359C183.16 14.1639 183.7 13.6239 184.348 13.2159C185.02 12.7839 185.764 12.4719 186.58 12.2799C187.42 12.0639 188.248 11.9559 189.064 11.9559C190.12 11.9559 191.092 12.0519 191.98 12.2439C192.868 12.4119 193.648 12.7239 194.32 13.1799C195.016 13.6119 195.568 14.2119 195.976 14.9799C196.384 15.7239 196.624 16.6599 196.696 17.7879H193.636C193.588 17.1879 193.432 16.6959 193.168 16.3119C192.904 15.9039 192.568 15.5799 192.16 15.3399C191.752 15.0999 191.296 14.9319 190.792 14.8359C190.312 14.7159 189.82 14.6559 189.316 14.6559C188.86 14.6559 188.392 14.6919 187.912 14.7639C187.456 14.8359 187.036 14.9679 186.652 15.1599C186.268 15.3279 185.956 15.5679 185.716 15.8799C185.476 16.1679 185.356 16.5519 185.356 17.0319C185.356 17.5599 185.536 18.0039 185.896 18.3639C186.28 18.6999 186.76 18.9879 187.336 19.2279C187.912 19.4439 188.56 19.6359 189.28 19.8039C190 19.9479 190.72 20.1039 191.44 20.2719C192.208 20.4399 192.952 20.6439 193.672 20.8839C194.416 21.1239 195.064 21.4479 195.616 21.8559C196.192 22.2399 196.648 22.7319 196.984 23.3319C197.344 23.9319 197.524 24.6759 197.524 25.5639C197.524 26.6919 197.284 27.6279 196.804 28.3719C196.348 29.1159 195.736 29.7159 194.968 30.1719C194.224 30.6279 193.372 30.9399 192.412 31.1079C191.476 31.2999 190.54 31.3959 189.604 31.3959C188.572 31.3959 187.588 31.2879 186.652 31.0719C185.716 30.8559 184.888 30.5079 184.168 30.0279C183.448 29.5239 182.872 28.8759 182.44 28.0839C182.008 27.2679 181.768 26.2839 181.72 25.1319H184.78Z" fill="white"/>
</svg>
